<svg xmlns="http://www.w3.org/2000/svg" viewBox="0 0 32 32">
  <!-- Book base -->
  <path d="M8 6 L16 4 L24 6 L24 24 L16 26 L8 24 Z" fill="#4F46E5" />
  <path d="M16 4 L16 26" stroke="#3730A3" stroke-width="1" />

  <!-- Flying pages -->
  <rect x="21" y="2" width="7" height="5" rx="1" fill="#E0E7FF" transform="rotate(30 25 4)" />
  <rect x="24" y="6" width="6" height="4" rx="1" fill="#C7D2FE" transform="rotate(50 27 8)" />
  <rect x="4" y="2" width="7" height="5" rx="1" fill="#E0E7FF" transform="rotate(-30 7 4)" />
  <rect x="2" y="6" width="6" height="4" rx="1" fill="#C7D2FE" transform="rotate(-50 5 8)" />

  <!-- Motion lines -->
  <line x1="27" y1="4" x2="30" y2="2" stroke="#818CF8" stroke-width="1.5" stroke-linecap="round" />
  <line x1="28" y1="8" x2="31" y2="7" stroke="#818CF8" stroke-width="1.5" stroke-linecap="round" />
  <line x1="26" y1="11" x2="29" y2="12" stroke="#818CF8" stroke-width="1.5" stroke-linecap="round" />
  <line x1="2" y1="10" x2="5" y2="12" stroke="#818CF8" stroke-width="1.5" stroke-linecap="round" />
  <line x1="3" y1="5" x2="1" y2="3" stroke="#818CF8" stroke-width="1.5" stroke-linecap="round" />
  <line x1="4" y1="8" x2="1" y2="6" stroke="#818CF8" stroke-width="1.5" stroke-linecap="round" />
</svg>
