<svg xmlns="http://www.w3.org/2000/svg" viewBox="0 0 32 32">
  <!-- Book base -->
  <path d="M8 6 L16 4 L24 6 L24 24 L16 26 L8 24 Z" fill="#4F46E5" />
  <path d="M16 4 L16 26" stroke="#3730A3" stroke-width="1" />

  <!-- Flying pages -->
  <rect x="18" y="1" width="8" height="6" rx="1" fill="#E0E7FF" transform="rotate(25 22 4)" />
  <rect x="20" y="3" width="7" height="5" rx="1" fill="#C7D2FE" transform="rotate(45 24 5)" />
  <rect x="4" y="2" width="7" height="5" rx="1" fill="#E0E7FF" transform="rotate(-30 7 4)" />
  <rect x="2" y="6" width="6" height="4" rx="1" fill="#C7D2FE" transform="rotate(-50 5 8)" />
  <rect x="22" y="8" width="6" height="4" rx="1" fill="#E0E7FF" transform="rotate(15 25 10)" />

  <!-- Motion lines -->
  <line x1="26" y1="6" x2="30" y2="4" stroke="#818CF8" stroke-width="1.5" stroke-linecap="round" />
  <line x1="27" y1="10" x2="30" y2="10" stroke="#818CF8" stroke-width="1.5" stroke-linecap="round" />
  <line x1="2" y1="10" x2="5" y2="12" stroke="#818CF8" stroke-width="1.5" stroke-linecap="round" />
  <line x1="3" y1="5" x2="1" y2="3" stroke="#818CF8" stroke-width="1.5" stroke-linecap="round" />
</svg>
